<?xml version="1.0" encoding="UTF-8" standalone="no"?>
<!-- Created with Inkscape (http://www.inkscape.org/) -->

<svg
   xmlns:dc="http://purl.org/dc/elements/1.1/"
   xmlns:cc="http://creativecommons.org/ns#"
   xmlns:rdf="http://www.w3.org/1999/02/22-rdf-syntax-ns#"
   xmlns:svg="http://www.w3.org/2000/svg"
   xmlns="http://www.w3.org/2000/svg"
   xmlns:xlink="http://www.w3.org/1999/xlink"
   xmlns:sodipodi="http://sodipodi.sourceforge.net/DTD/sodipodi-0.dtd"
   xmlns:inkscape="http://www.inkscape.org/namespaces/inkscape"
   width="50"
   height="50"
   id="svg3374"
   version="1.1"
   inkscape:version="0.48.3.1 r9886"
   sodipodi:docname="question.pdf">
  <defs
     id="defs3376">
    <linearGradient
       inkscape:collect="always"
       xlink:href="#linearGradient4886"
       id="linearGradient3173"
       gradientUnits="userSpaceOnUse"
       x1="314.56537"
       y1="369.97995"
       x2="332.02466"
       y2="387.43924" />
    <linearGradient
       id="linearGradient4886">
      <stop
         id="stop4888"
         offset="0.0000000"
         style="stop-color:#1c97e1;stop-opacity:1.0000000;" />
      <stop
         id="stop4890"
         offset="1.0000000"
         style="stop-color:#006798;stop-opacity:1.0000000;" />
    </linearGradient>
    <linearGradient
       inkscape:collect="always"
       xlink:href="#linearGradient4554"
       id="linearGradient3175"
       gradientUnits="userSpaceOnUse"
       gradientTransform="matrix(1.9519,0,0,1.84182,-341.0404,-488.5229)"
       x1="302.73621"
       y1="377.9527"
       x2="311.27377"
       y2="390.78342" />
    <linearGradient
       id="linearGradient4554">
      <stop
         id="stop4556"
         offset="0.0000000"
         style="stop-color:#ffffff;stop-opacity:1.0000000;" />
      <stop
         id="stop4558"
         offset="1.0000000"
         style="stop-color:#ffffff;stop-opacity:0.0000000;" />
    </linearGradient>
    <linearGradient
       inkscape:collect="always"
       xlink:href="#linearGradient4738"
       id="linearGradient3177"
       gradientUnits="userSpaceOnUse"
       gradientTransform="matrix(0.705519,0,0,0.956752,-290.5796,-78.4396)"
       x1="786.64636"
       y1="302.44009"
       x2="818.39136"
       y2="338.76443" />
    <linearGradient
       id="linearGradient4738">
      <stop
         id="stop4740"
         offset="0.0000000"
         style="stop-color:#ffffff;stop-opacity:0.72656250;" />
      <stop
         id="stop4742"
         offset="1.0000000"
         style="stop-color:#ffffff;stop-opacity:1.0000000;" />
    </linearGradient>
    <linearGradient
       y2="338.76443"
       x2="818.39136"
       y1="302.44009"
       x1="786.64636"
       gradientTransform="matrix(0.705519,0,0,0.956752,-290.5796,-78.4396)"
       gradientUnits="userSpaceOnUse"
       id="linearGradient3372"
       xlink:href="#linearGradient4738"
       inkscape:collect="always" />
  </defs>
  <sodipodi:namedview
     id="base"
     pagecolor="#ffffff"
     bordercolor="#666666"
     borderopacity="1.0"
     inkscape:pageopacity="0.0"
     inkscape:pageshadow="2"
     inkscape:zoom="0.35"
     inkscape:cx="197.14286"
     inkscape:cy="-283.57143"
     inkscape:document-units="px"
     inkscape:current-layer="layer1"
     showgrid="false"
     fit-margin-top="0"
     fit-margin-left="0"
     fit-margin-right="0"
     fit-margin-bottom="0"
     inkscape:window-width="437"
     inkscape:window-height="408"
     inkscape:window-x="2"
     inkscape:window-y="79"
     inkscape:window-maximized="0" />
  <metadata
     id="metadata3379">
    <rdf:RDF>
      <cc:Work
         rdf:about="">
        <dc:format>image/svg+xml</dc:format>
        <dc:type
           rdf:resource="http://purl.org/dc/dcmitype/StillImage" />
        <dc:title></dc:title>
      </cc:Work>
    </rdf:RDF>
  </metadata>
  <g
     inkscape:label="Layer 1"
     inkscape:groupmode="layer"
     id="layer1"
     transform="translate(-177.85714,-198.79075)">
    <g
       id="g3149"
       transform="matrix(0.94404906,0,0,0.94404906,-57.947945,8.266313)">
      <path
         sodipodi:type="arc"
         style="fill:#166496;fill-opacity:1;fill-rule:nonzero;stroke:none;stroke-width:3.625;marker:none;visibility:visible;display:inline;overflow:visible"
         id="path4850"
         sodipodi:cx="325.57108"
         sodipodi:cy="378.05789"
         sodipodi:rx="13.966679"
         sodipodi:ry="13.966679"
         d="m 339.53775,378.05789 c 0,7.71359 -6.25309,13.96668 -13.96667,13.96668 -7.71359,0 -13.96668,-6.25309 -13.96668,-13.96668 0,-7.71358 6.25309,-13.96668 13.96668,-13.96668 7.71358,0 13.96667,6.2531 13.96667,13.96668 z"
         transform="matrix(1.896061,0,0,1.896061,-341.0404,-488.5229)" />
      <path
         sodipodi:type="arc"
         style="fill:url(#linearGradient3173);fill-opacity:1;fill-rule:nonzero;stroke:#ffffff;stroke-width:0.72660029;stroke-linecap:butt;stroke-linejoin:miter;stroke-miterlimit:4;stroke-opacity:1;stroke-dashoffset:0;marker:none;visibility:visible;display:inline;overflow:visible"
         id="path4852"
         sodipodi:cx="325.57108"
         sodipodi:cy="378.05789"
         sodipodi:rx="13.966679"
         sodipodi:ry="13.966679"
         d="m 339.53775,378.05789 c 0,7.71359 -6.25309,13.96668 -13.96667,13.96668 -7.71359,0 -13.96668,-6.25309 -13.96668,-13.96668 0,-7.71358 6.25309,-13.96668 13.96668,-13.96668 7.71358,0 13.96667,6.2531 13.96667,13.96668 z"
         transform="matrix(1.731185,0,0,1.731185,-287.3619,-426.1907)" />
      <path
         style="fill:url(#linearGradient3175);fill-opacity:1;fill-rule:nonzero;stroke:none;stroke-width:0.61607176;marker:none;visibility:visible;display:inline;overflow:visible"
         d="m 276.24601,204.13173 c -13.34675,0 -24.1748,10.82803 -24.17478,24.17478 0,6.41257 2.61694,12.14291 6.69547,16.47203 2.11885,-17.50049 16.88952,-31.10725 34.95862,-31.10725 0.48721,0 0.93961,0.099 1.42205,0.1185 -4.42143,-5.75069 -11.09207,-9.65806 -18.90136,-9.65806 z"
         id="path4854"
         inkscape:connector-curvature="0" />
      <path
         style="font-size:51.19549179px;font-style:normal;font-variant:normal;font-weight:normal;font-stretch:normal;letter-spacing:normal;writing-mode:lr-tb;text-anchor:start;fill:url(#linearGradient3372);fill-opacity:1;fill-rule:nonzero;stroke:none;stroke-width:1px;marker:none;visibility:visible;display:inline;overflow:visible;font-family:URW Bookman L"
         d="m 274.29085,240.84024 c -1.89424,0 -3.37891,1.48467 -3.37891,3.27651 0,1.84304 1.48467,3.32771 3.32771,3.32771 1.79184,0 3.27651,-1.48467 3.27651,-3.32771 0,-1.79184 -1.48467,-3.27651 -3.22531,-3.27651 m 1.1263,-2.96934 c -0.0512,-4.60759 1.02391,-6.34824 4.5052,-7.67932 l 1.68945,-0.61435 c 2.35499,-0.81913 3.89086,-1.84304 4.96596,-3.12292 1.22869,-1.63826 1.94543,-3.68608 1.94543,-5.6827 0,-3.02054 -1.53586,-5.83629 -4.04444,-7.32096 -2.3038,-1.38228 -5.32434,-2.20141 -8.24248,-2.20141 -3.37889,0 -7.06498,1.07511 -9.11279,2.66217 -2.20141,1.74064 -3.53249,3.99325 -3.53249,6.04107 0,2.15021 1.33108,3.73727 3.17412,3.73727 1.48467,0 2.76456,-1.1775 2.76456,-2.45738 0,-0.51196 -0.1024,-0.81913 -0.61435,-1.89424 -0.35837,-0.66554 -0.46076,-1.0751 -0.46076,-1.63825 0,-2.45739 3.22532,-4.40282 7.26976,-4.40282 4.65878,0 7.26976,2.55978 7.26976,7.01379 0,2.81575 -1.22869,5.11955 -3.53249,6.70661 l -2.91814,1.99662 c -2.76456,1.84304 -3.53249,3.32771 -3.53249,6.60422 0,0.66554 0.0512,1.22869 0.10239,2.2526 l 2.3038,0"
         id="text4864"
         inkscape:connector-curvature="0" />
    </g>
  </g>
</svg>
